<svg xmlns="http://www.w3.org/2000/svg" viewBox="0 0 100 100">
  <defs>
    <linearGradient id="yarn" x1="0%" y1="0%" x2="100%" y2="100%">
      <stop offset="0%" style="stop-color:#d4a574;stop-opacity:1" />
      <stop offset="100%" style="stop-color:#b8935f;stop-opacity:1" />
    </linearGradient>
  </defs>
  
  <!-- Yarn ball -->
  <circle cx="50" cy="50" r="35" fill="url(#yarn)" stroke="#8b5a3c" stroke-width="2"/>
  
  <!-- Yarn strands -->
  <path d="M20 30 Q35 25 50 30 Q65 35 80 30" stroke="#8b5a3c" stroke-width="2" fill="none"/>
  <path d="M25 45 Q40 40 55 45 Q70 50 85 45" stroke="#8b5a3c" stroke-width="2" fill="none"/>
  <path d="M15 60 Q30 55 45 60 Q60 65 75 60" stroke="#8b5a3c" stroke-width="2" fill="none"/>
  
  <!-- Heart symbol -->
  <path d="M45 40 C45 37 47 35 50 35 C53 35 55 37 55 40 C55 43 50 48 50 48 C50 48 45 43 45 40 Z" fill="#ffffff" opacity="0.8"/>
</svg>
